<svg width="48" height="48" viewBox="0 0 48 48" fill="none" xmlns="http://www.w3.org/2000/svg">
<g clip-path="url(#clip0_346_2)">
<path d="M38.0713 35.4938C39.5298 35.4928 40.928 34.9042 41.9592 33.8575C42.9904 32.8108 43.5704 31.3917 43.5714 29.9114V7.58205C43.5704 6.10206 42.9905 4.68263 41.9592 3.63597C40.928 2.58966 39.5297 2.00104 38.0713 2H20.0712C18.6131 2.00102 17.2146 2.5896 16.1833 3.63597C15.1524 4.68263 14.5725 6.10215 14.5715 7.58205V12.4338H10.0715C8.61293 12.4352 7.2151 13.0241 6.18387 14.0704C5.15298 15.1171 4.57304 16.5359 4.57141 18.0159V40.0608C4.57309 41.5408 5.153 42.9595 6.18387 44.0063C7.2151 45.0526 8.61302 45.6416 10.0715 45.6429H28.0715C29.5297 45.6415 30.9275 45.0526 31.9588 44.0063C32.9897 42.9596 33.57 41.5408 33.5713 40.0608V35.4935L38.0713 35.4938ZM17.5718 7.58187C17.5728 6.90935 17.8367 6.26466 18.3051 5.78896C18.7738 5.31354 19.409 5.04575 20.0716 5.04473H38.0716C38.7346 5.04575 39.3697 5.31353 39.8384 5.78896C40.3068 6.26473 40.5707 6.90939 40.5717 7.58187V29.9113C40.5707 30.5838 40.3069 31.2288 39.8384 31.7042C39.3697 32.18 38.7345 32.4477 38.0716 32.4488H20.0716C19.4089 32.4477 18.7738 32.18 18.3051 31.7042C17.8367 31.2288 17.5728 30.5838 17.5718 29.9113V7.58187ZM30.5721 40.0603L30.5718 40.0606C30.5708 40.7332 30.307 41.3778 29.8385 41.8535C29.3698 42.329 28.7346 42.5968 28.072 42.5978H10.072C9.40905 42.5967 8.77385 42.329 8.30517 41.8535C7.83675 41.3778 7.57291 40.7331 7.57191 40.0606V18.0157C7.57291 17.3432 7.83675 16.6985 8.30517 16.2228C8.77392 15.747 9.40908 15.4796 10.072 15.4786H14.572V29.9113C14.573 31.3916 15.1529 32.8107 16.1839 33.8574C17.2151 34.904 18.6137 35.4926 20.0718 35.4937H30.5718L30.5721 40.0603Z" fill="#11204D" fill-opacity="0.7"/>
</g>
<defs>
<clipPath id="clip0_346_2">
<rect width="48" height="48" fill="white"/>
</clipPath>
</defs>
</svg>
